<mxfile host="Electron" modified="2023-12-06T01:03:31.140Z" agent="Mozilla/5.0 (X11; Linux x86_64) AppleWebKit/537.36 (KHTML, like Gecko) draw.io/22.1.2 Chrome/114.0.5735.289 Electron/25.9.4 Safari/537.36" etag="tneq02l4M3jwbHvUEo3I" version="22.1.2" type="device">
  <diagram name="Page-1" id="IP8us00KFwnsXaxDtfnF">
    <mxGraphModel dx="1819" dy="1124" grid="1" gridSize="10" guides="1" tooltips="1" connect="1" arrows="1" fold="1" page="1" pageScale="1" pageWidth="700" pageHeight="700" math="0" shadow="0">
      <root>
        <mxCell id="0" />
        <mxCell id="1" parent="0" />
        <mxCell id="198rC_zAYKmVKz0Gvn8g-5" value="" style="edgeStyle=orthogonalEdgeStyle;rounded=0;orthogonalLoop=1;jettySize=auto;html=1;" edge="1" parent="1" source="198rC_zAYKmVKz0Gvn8g-1" target="198rC_zAYKmVKz0Gvn8g-4">
          <mxGeometry relative="1" as="geometry" />
        </mxCell>
        <mxCell id="198rC_zAYKmVKz0Gvn8g-1" value="Greenhouse (microcontroller)" style="rounded=0;whiteSpace=wrap;html=1;" vertex="1" parent="1">
          <mxGeometry x="40" y="40" width="120" height="60" as="geometry" />
        </mxCell>
        <mxCell id="198rC_zAYKmVKz0Gvn8g-7" value="" style="edgeStyle=orthogonalEdgeStyle;rounded=0;orthogonalLoop=1;jettySize=auto;html=1;" edge="1" parent="1" source="198rC_zAYKmVKz0Gvn8g-2" target="198rC_zAYKmVKz0Gvn8g-6">
          <mxGeometry relative="1" as="geometry" />
        </mxCell>
        <mxCell id="198rC_zAYKmVKz0Gvn8g-2" value="Client" style="rounded=0;whiteSpace=wrap;html=1;" vertex="1" parent="1">
          <mxGeometry x="360" y="40" width="120" height="60" as="geometry" />
        </mxCell>
        <mxCell id="198rC_zAYKmVKz0Gvn8g-27" style="edgeStyle=orthogonalEdgeStyle;rounded=0;orthogonalLoop=1;jettySize=auto;html=1;entryX=0.5;entryY=0;entryDx=0;entryDy=0;" edge="1" parent="1" source="198rC_zAYKmVKz0Gvn8g-3" target="198rC_zAYKmVKz0Gvn8g-25">
          <mxGeometry relative="1" as="geometry" />
        </mxCell>
        <mxCell id="198rC_zAYKmVKz0Gvn8g-3" value="Server" style="rounded=0;whiteSpace=wrap;html=1;" vertex="1" parent="1">
          <mxGeometry x="200" y="40" width="120" height="60" as="geometry" />
        </mxCell>
        <mxCell id="198rC_zAYKmVKz0Gvn8g-9" value="" style="edgeStyle=orthogonalEdgeStyle;rounded=0;orthogonalLoop=1;jettySize=auto;html=1;" edge="1" parent="1" source="198rC_zAYKmVKz0Gvn8g-4" target="198rC_zAYKmVKz0Gvn8g-8">
          <mxGeometry relative="1" as="geometry" />
        </mxCell>
        <mxCell id="198rC_zAYKmVKz0Gvn8g-4" value="Enter wireless AP Mode" style="whiteSpace=wrap;html=1;rounded=0;" vertex="1" parent="1">
          <mxGeometry x="40" y="140" width="120" height="60" as="geometry" />
        </mxCell>
        <mxCell id="198rC_zAYKmVKz0Gvn8g-10" style="edgeStyle=orthogonalEdgeStyle;rounded=0;orthogonalLoop=1;jettySize=auto;html=1;exitX=0;exitY=0.5;exitDx=0;exitDy=0;entryX=1;entryY=0.5;entryDx=0;entryDy=0;" edge="1" parent="1" source="198rC_zAYKmVKz0Gvn8g-6" target="198rC_zAYKmVKz0Gvn8g-8">
          <mxGeometry relative="1" as="geometry" />
        </mxCell>
        <mxCell id="198rC_zAYKmVKz0Gvn8g-14" value="" style="edgeStyle=orthogonalEdgeStyle;rounded=0;orthogonalLoop=1;jettySize=auto;html=1;" edge="1" parent="1" source="198rC_zAYKmVKz0Gvn8g-6" target="198rC_zAYKmVKz0Gvn8g-13">
          <mxGeometry relative="1" as="geometry" />
        </mxCell>
        <mxCell id="198rC_zAYKmVKz0Gvn8g-6" value="connect to wireless AP greenhouse" style="whiteSpace=wrap;html=1;rounded=0;" vertex="1" parent="1">
          <mxGeometry x="360" y="240" width="120" height="60" as="geometry" />
        </mxCell>
        <mxCell id="198rC_zAYKmVKz0Gvn8g-12" value="" style="edgeStyle=orthogonalEdgeStyle;rounded=0;orthogonalLoop=1;jettySize=auto;html=1;" edge="1" parent="1" source="198rC_zAYKmVKz0Gvn8g-8" target="198rC_zAYKmVKz0Gvn8g-11">
          <mxGeometry relative="1" as="geometry" />
        </mxCell>
        <mxCell id="198rC_zAYKmVKz0Gvn8g-8" value="Listen for connections" style="whiteSpace=wrap;html=1;rounded=0;" vertex="1" parent="1">
          <mxGeometry x="40" y="240" width="120" height="60" as="geometry" />
        </mxCell>
        <mxCell id="198rC_zAYKmVKz0Gvn8g-15" style="edgeStyle=orthogonalEdgeStyle;rounded=0;orthogonalLoop=1;jettySize=auto;html=1;" edge="1" parent="1" source="198rC_zAYKmVKz0Gvn8g-11" target="198rC_zAYKmVKz0Gvn8g-13">
          <mxGeometry relative="1" as="geometry" />
        </mxCell>
        <mxCell id="198rC_zAYKmVKz0Gvn8g-22" value="" style="edgeStyle=orthogonalEdgeStyle;rounded=0;orthogonalLoop=1;jettySize=auto;html=1;" edge="1" parent="1" source="198rC_zAYKmVKz0Gvn8g-11" target="198rC_zAYKmVKz0Gvn8g-20">
          <mxGeometry relative="1" as="geometry" />
        </mxCell>
        <mxCell id="198rC_zAYKmVKz0Gvn8g-11" value="Load webpage into RAM" style="whiteSpace=wrap;html=1;rounded=0;" vertex="1" parent="1">
          <mxGeometry x="40" y="340" width="120" height="60" as="geometry" />
        </mxCell>
        <mxCell id="198rC_zAYKmVKz0Gvn8g-19" value="" style="edgeStyle=orthogonalEdgeStyle;rounded=0;orthogonalLoop=1;jettySize=auto;html=1;" edge="1" parent="1" source="198rC_zAYKmVKz0Gvn8g-13" target="198rC_zAYKmVKz0Gvn8g-18">
          <mxGeometry relative="1" as="geometry" />
        </mxCell>
        <mxCell id="198rC_zAYKmVKz0Gvn8g-13" value="Receive webpage" style="whiteSpace=wrap;html=1;rounded=0;" vertex="1" parent="1">
          <mxGeometry x="360" y="340" width="120" height="60" as="geometry" />
        </mxCell>
        <mxCell id="198rC_zAYKmVKz0Gvn8g-21" value="" style="edgeStyle=orthogonalEdgeStyle;rounded=0;orthogonalLoop=1;jettySize=auto;html=1;" edge="1" parent="1" source="198rC_zAYKmVKz0Gvn8g-18" target="198rC_zAYKmVKz0Gvn8g-20">
          <mxGeometry relative="1" as="geometry" />
        </mxCell>
        <mxCell id="198rC_zAYKmVKz0Gvn8g-29" value="" style="edgeStyle=orthogonalEdgeStyle;rounded=0;orthogonalLoop=1;jettySize=auto;html=1;" edge="1" parent="1" source="198rC_zAYKmVKz0Gvn8g-18" target="198rC_zAYKmVKz0Gvn8g-28">
          <mxGeometry relative="1" as="geometry" />
        </mxCell>
        <mxCell id="198rC_zAYKmVKz0Gvn8g-18" value="Enter authentication information for Wi-Fi" style="whiteSpace=wrap;html=1;rounded=0;" vertex="1" parent="1">
          <mxGeometry x="360" y="440" width="120" height="60" as="geometry" />
        </mxCell>
        <mxCell id="198rC_zAYKmVKz0Gvn8g-24" value="" style="edgeStyle=orthogonalEdgeStyle;rounded=0;orthogonalLoop=1;jettySize=auto;html=1;" edge="1" parent="1" source="198rC_zAYKmVKz0Gvn8g-20" target="198rC_zAYKmVKz0Gvn8g-23">
          <mxGeometry relative="1" as="geometry" />
        </mxCell>
        <mxCell id="198rC_zAYKmVKz0Gvn8g-20" value="Shutdown AP, connect to specified Wi-Fi network" style="whiteSpace=wrap;html=1;rounded=0;" vertex="1" parent="1">
          <mxGeometry x="40" y="440" width="120" height="60" as="geometry" />
        </mxCell>
        <mxCell id="198rC_zAYKmVKz0Gvn8g-26" value="" style="edgeStyle=orthogonalEdgeStyle;rounded=0;orthogonalLoop=1;jettySize=auto;html=1;" edge="1" parent="1" source="198rC_zAYKmVKz0Gvn8g-23" target="198rC_zAYKmVKz0Gvn8g-25">
          <mxGeometry relative="1" as="geometry" />
        </mxCell>
        <mxCell id="198rC_zAYKmVKz0Gvn8g-38" value="" style="edgeStyle=orthogonalEdgeStyle;rounded=0;orthogonalLoop=1;jettySize=auto;html=1;" edge="1" parent="1" source="198rC_zAYKmVKz0Gvn8g-23" target="198rC_zAYKmVKz0Gvn8g-35">
          <mxGeometry relative="1" as="geometry" />
        </mxCell>
        <mxCell id="198rC_zAYKmVKz0Gvn8g-23" value="Begin broadcasting to the network&amp;nbsp;" style="whiteSpace=wrap;html=1;rounded=0;" vertex="1" parent="1">
          <mxGeometry x="40" y="540" width="120" height="60" as="geometry" />
        </mxCell>
        <mxCell id="198rC_zAYKmVKz0Gvn8g-30" value="" style="edgeStyle=orthogonalEdgeStyle;rounded=0;orthogonalLoop=1;jettySize=auto;html=1;" edge="1" parent="1" source="198rC_zAYKmVKz0Gvn8g-25" target="198rC_zAYKmVKz0Gvn8g-28">
          <mxGeometry relative="1" as="geometry" />
        </mxCell>
        <mxCell id="198rC_zAYKmVKz0Gvn8g-37" value="" style="edgeStyle=orthogonalEdgeStyle;rounded=0;orthogonalLoop=1;jettySize=auto;html=1;" edge="1" parent="1" source="198rC_zAYKmVKz0Gvn8g-25" target="198rC_zAYKmVKz0Gvn8g-33">
          <mxGeometry relative="1" as="geometry" />
        </mxCell>
        <mxCell id="198rC_zAYKmVKz0Gvn8g-25" value="receive broadcast, append to registration queue" style="whiteSpace=wrap;html=1;rounded=0;" vertex="1" parent="1">
          <mxGeometry x="200" y="540" width="120" height="60" as="geometry" />
        </mxCell>
        <mxCell id="198rC_zAYKmVKz0Gvn8g-32" value="" style="edgeStyle=orthogonalEdgeStyle;rounded=0;orthogonalLoop=1;jettySize=auto;html=1;" edge="1" parent="1" source="198rC_zAYKmVKz0Gvn8g-28" target="198rC_zAYKmVKz0Gvn8g-31">
          <mxGeometry relative="1" as="geometry" />
        </mxCell>
        <mxCell id="198rC_zAYKmVKz0Gvn8g-28" value="read registration queue on web portal" style="whiteSpace=wrap;html=1;rounded=0;" vertex="1" parent="1">
          <mxGeometry x="360" y="540" width="120" height="60" as="geometry" />
        </mxCell>
        <mxCell id="198rC_zAYKmVKz0Gvn8g-34" value="" style="edgeStyle=orthogonalEdgeStyle;rounded=0;orthogonalLoop=1;jettySize=auto;html=1;" edge="1" parent="1" source="198rC_zAYKmVKz0Gvn8g-31" target="198rC_zAYKmVKz0Gvn8g-33">
          <mxGeometry relative="1" as="geometry" />
        </mxCell>
        <mxCell id="198rC_zAYKmVKz0Gvn8g-60" style="edgeStyle=orthogonalEdgeStyle;rounded=0;orthogonalLoop=1;jettySize=auto;html=1;entryX=0.5;entryY=0;entryDx=0;entryDy=0;" edge="1" parent="1" source="198rC_zAYKmVKz0Gvn8g-31" target="198rC_zAYKmVKz0Gvn8g-53">
          <mxGeometry relative="1" as="geometry" />
        </mxCell>
        <mxCell id="198rC_zAYKmVKz0Gvn8g-31" value="request to register specified device" style="whiteSpace=wrap;html=1;rounded=0;" vertex="1" parent="1">
          <mxGeometry x="360" y="640" width="120" height="60" as="geometry" />
        </mxCell>
        <mxCell id="198rC_zAYKmVKz0Gvn8g-36" value="" style="edgeStyle=orthogonalEdgeStyle;rounded=0;orthogonalLoop=1;jettySize=auto;html=1;" edge="1" parent="1" source="198rC_zAYKmVKz0Gvn8g-33" target="198rC_zAYKmVKz0Gvn8g-35">
          <mxGeometry relative="1" as="geometry" />
        </mxCell>
        <mxCell id="198rC_zAYKmVKz0Gvn8g-43" value="" style="edgeStyle=orthogonalEdgeStyle;rounded=0;orthogonalLoop=1;jettySize=auto;html=1;" edge="1" parent="1" source="198rC_zAYKmVKz0Gvn8g-33" target="198rC_zAYKmVKz0Gvn8g-41">
          <mxGeometry relative="1" as="geometry" />
        </mxCell>
        <mxCell id="198rC_zAYKmVKz0Gvn8g-33" value="receive request from frontend to register device, send UDP ACK to greenhouse" style="whiteSpace=wrap;html=1;rounded=0;" vertex="1" parent="1">
          <mxGeometry x="200" y="640" width="120" height="60" as="geometry" />
        </mxCell>
        <mxCell id="198rC_zAYKmVKz0Gvn8g-40" value="" style="edgeStyle=orthogonalEdgeStyle;rounded=0;orthogonalLoop=1;jettySize=auto;html=1;" edge="1" parent="1" source="198rC_zAYKmVKz0Gvn8g-35" target="198rC_zAYKmVKz0Gvn8g-39">
          <mxGeometry relative="1" as="geometry" />
        </mxCell>
        <mxCell id="198rC_zAYKmVKz0Gvn8g-35" value="receive acknowledgement with server data" style="whiteSpace=wrap;html=1;rounded=0;" vertex="1" parent="1">
          <mxGeometry x="40" y="640" width="120" height="60" as="geometry" />
        </mxCell>
        <mxCell id="198rC_zAYKmVKz0Gvn8g-42" value="" style="edgeStyle=orthogonalEdgeStyle;rounded=0;orthogonalLoop=1;jettySize=auto;html=1;" edge="1" parent="1" source="198rC_zAYKmVKz0Gvn8g-39" target="198rC_zAYKmVKz0Gvn8g-41">
          <mxGeometry relative="1" as="geometry" />
        </mxCell>
        <mxCell id="198rC_zAYKmVKz0Gvn8g-48" value="" style="edgeStyle=orthogonalEdgeStyle;rounded=0;orthogonalLoop=1;jettySize=auto;html=1;" edge="1" parent="1" source="198rC_zAYKmVKz0Gvn8g-39" target="198rC_zAYKmVKz0Gvn8g-46">
          <mxGeometry relative="1" as="geometry" />
        </mxCell>
        <mxCell id="198rC_zAYKmVKz0Gvn8g-39" value="send association request including device data to server" style="whiteSpace=wrap;html=1;rounded=0;" vertex="1" parent="1">
          <mxGeometry x="40" y="740" width="120" height="60" as="geometry" />
        </mxCell>
        <mxCell id="198rC_zAYKmVKz0Gvn8g-45" value="" style="edgeStyle=orthogonalEdgeStyle;rounded=0;orthogonalLoop=1;jettySize=auto;html=1;" edge="1" parent="1" source="198rC_zAYKmVKz0Gvn8g-41" target="198rC_zAYKmVKz0Gvn8g-44">
          <mxGeometry relative="1" as="geometry" />
        </mxCell>
        <mxCell id="198rC_zAYKmVKz0Gvn8g-41" value="receive association request, compare data to database entry" style="whiteSpace=wrap;html=1;rounded=0;" vertex="1" parent="1">
          <mxGeometry x="200" y="740" width="120" height="60" as="geometry" />
        </mxCell>
        <mxCell id="198rC_zAYKmVKz0Gvn8g-47" value="" style="edgeStyle=orthogonalEdgeStyle;rounded=0;orthogonalLoop=1;jettySize=auto;html=1;" edge="1" parent="1" source="198rC_zAYKmVKz0Gvn8g-44" target="198rC_zAYKmVKz0Gvn8g-46">
          <mxGeometry relative="1" as="geometry" />
        </mxCell>
        <mxCell id="198rC_zAYKmVKz0Gvn8g-55" value="" style="edgeStyle=orthogonalEdgeStyle;rounded=0;orthogonalLoop=1;jettySize=auto;html=1;" edge="1" parent="1" source="198rC_zAYKmVKz0Gvn8g-44" target="198rC_zAYKmVKz0Gvn8g-51">
          <mxGeometry relative="1" as="geometry" />
        </mxCell>
        <mxCell id="198rC_zAYKmVKz0Gvn8g-44" value="send sync request to the greenhouse" style="whiteSpace=wrap;html=1;rounded=0;" vertex="1" parent="1">
          <mxGeometry x="200" y="840" width="120" height="60" as="geometry" />
        </mxCell>
        <mxCell id="198rC_zAYKmVKz0Gvn8g-50" value="" style="edgeStyle=orthogonalEdgeStyle;rounded=0;orthogonalLoop=1;jettySize=auto;html=1;" edge="1" parent="1" source="198rC_zAYKmVKz0Gvn8g-46" target="198rC_zAYKmVKz0Gvn8g-49">
          <mxGeometry relative="1" as="geometry" />
        </mxCell>
        <mxCell id="198rC_zAYKmVKz0Gvn8g-46" value="synchronize the data on the device with that of the server" style="whiteSpace=wrap;html=1;rounded=0;" vertex="1" parent="1">
          <mxGeometry x="40" y="840" width="120" height="60" as="geometry" />
        </mxCell>
        <mxCell id="198rC_zAYKmVKz0Gvn8g-57" style="edgeStyle=orthogonalEdgeStyle;rounded=0;orthogonalLoop=1;jettySize=auto;html=1;exitX=1;exitY=0.75;exitDx=0;exitDy=0;entryX=0;entryY=0.75;entryDx=0;entryDy=0;" edge="1" parent="1" source="198rC_zAYKmVKz0Gvn8g-49" target="198rC_zAYKmVKz0Gvn8g-51">
          <mxGeometry relative="1" as="geometry" />
        </mxCell>
        <mxCell id="198rC_zAYKmVKz0Gvn8g-49" value="receive and send requests to and from the server" style="whiteSpace=wrap;html=1;rounded=0;" vertex="1" parent="1">
          <mxGeometry x="40" y="940" width="120" height="60" as="geometry" />
        </mxCell>
        <mxCell id="198rC_zAYKmVKz0Gvn8g-56" style="edgeStyle=orthogonalEdgeStyle;rounded=0;orthogonalLoop=1;jettySize=auto;html=1;exitX=0;exitY=0.25;exitDx=0;exitDy=0;entryX=1;entryY=0.25;entryDx=0;entryDy=0;" edge="1" parent="1" source="198rC_zAYKmVKz0Gvn8g-51" target="198rC_zAYKmVKz0Gvn8g-49">
          <mxGeometry relative="1" as="geometry" />
        </mxCell>
        <mxCell id="198rC_zAYKmVKz0Gvn8g-58" style="edgeStyle=orthogonalEdgeStyle;rounded=0;orthogonalLoop=1;jettySize=auto;html=1;exitX=1;exitY=0.75;exitDx=0;exitDy=0;entryX=0;entryY=0.75;entryDx=0;entryDy=0;" edge="1" parent="1" source="198rC_zAYKmVKz0Gvn8g-51" target="198rC_zAYKmVKz0Gvn8g-53">
          <mxGeometry relative="1" as="geometry" />
        </mxCell>
        <mxCell id="198rC_zAYKmVKz0Gvn8g-51" value="Receive and send requests to greenhouse and client" style="whiteSpace=wrap;html=1;rounded=0;" vertex="1" parent="1">
          <mxGeometry x="200" y="940" width="120" height="60" as="geometry" />
        </mxCell>
        <mxCell id="198rC_zAYKmVKz0Gvn8g-59" style="edgeStyle=orthogonalEdgeStyle;rounded=0;orthogonalLoop=1;jettySize=auto;html=1;exitX=0;exitY=0.25;exitDx=0;exitDy=0;entryX=1;entryY=0.25;entryDx=0;entryDy=0;" edge="1" parent="1" source="198rC_zAYKmVKz0Gvn8g-53" target="198rC_zAYKmVKz0Gvn8g-51">
          <mxGeometry relative="1" as="geometry" />
        </mxCell>
        <mxCell id="198rC_zAYKmVKz0Gvn8g-53" value="get data and send configurations to server" style="whiteSpace=wrap;html=1;rounded=0;" vertex="1" parent="1">
          <mxGeometry x="360" y="940" width="120" height="60" as="geometry" />
        </mxCell>
      </root>
    </mxGraphModel>
  </diagram>
</mxfile>
